<svg width="85" height="66" viewBox="0 0 85 66" fill="none" xmlns="http://www.w3.org/2000/svg">
    <g filter="url(#filter0_f)">
        <rect x="20" y="20" width="45" height="26" rx="5" fill="#E6E3E3"/>
    </g>
    <rect x="13" y="20" width="60" height="24" rx="5" fill="white"/>
    <path d="M24 27C21.243 27 19 29.243 19 32C19 34.757 21.243 37 24 37C26.757 37 29 34.757 29 32C29 29.243 26.757 27 24 27ZM25.6465 34.3535L23.5 32.207V29H24.5V31.793L26.3535 33.6465L25.6465 34.3535Z"
          fill="#FFC107"/>
    <path d="M35.436 31.474C35.628 31.434 35.812 31.406 35.988 31.39C36.164 31.37 36.334 31.36 36.498 31.36C36.954 31.36 37.356 31.428 37.704 31.564C38.052 31.7 38.344 31.888 38.58 32.128C38.816 32.368 38.994 32.65 39.114 32.974C39.234 33.294 39.294 33.64 39.294 34.012C39.294 34.472 39.212 34.892 39.048 35.272C38.888 35.652 38.664 35.978 38.376 36.25C38.088 36.518 37.746 36.726 37.35 36.874C36.958 37.022 36.53 37.096 36.066 37.096C35.794 37.096 35.536 37.068 35.292 37.012C35.048 36.956 34.818 36.882 34.602 36.79C34.39 36.694 34.192 36.586 34.008 36.466C33.828 36.342 33.666 36.212 33.522 36.076L33.978 35.446C34.074 35.31 34.2 35.242 34.356 35.242C34.456 35.242 34.558 35.274 34.662 35.338C34.766 35.402 34.884 35.472 35.016 35.548C35.152 35.624 35.31 35.694 35.49 35.758C35.674 35.822 35.894 35.854 36.15 35.854C36.422 35.854 36.662 35.81 36.87 35.722C37.078 35.634 37.25 35.512 37.386 35.356C37.526 35.196 37.63 35.008 37.698 34.792C37.77 34.572 37.806 34.334 37.806 34.078C37.806 33.606 37.668 33.238 37.392 32.974C37.12 32.706 36.716 32.572 36.18 32.572C35.768 32.572 35.346 32.648 34.914 32.8L33.99 32.536L34.71 28.324H38.994V28.954C38.994 29.166 38.928 29.338 38.796 29.47C38.664 29.602 38.44 29.668 38.124 29.668H35.742L35.436 31.474ZM53.2529 28.324V37H51.8309V31.396C51.8309 31.172 51.8429 30.93 51.8669 30.67L49.2449 35.596C49.1209 35.832 48.9309 35.95 48.6749 35.95H48.4469C48.1909 35.95 48.0009 35.832 47.8769 35.596L45.2249 30.652C45.2369 30.784 45.2469 30.914 45.2549 31.042C45.2629 31.17 45.2669 31.288 45.2669 31.396V37H43.8449V28.324H45.0629C45.1349 28.324 45.1969 28.326 45.2489 28.33C45.3009 28.334 45.3469 28.344 45.3869 28.36C45.4309 28.376 45.4689 28.402 45.5009 28.438C45.5369 28.474 45.5709 28.522 45.6029 28.582L48.2009 33.4C48.2689 33.528 48.3309 33.66 48.3869 33.796C48.4469 33.932 48.5049 34.072 48.5609 34.216C48.6169 34.068 48.6749 33.926 48.7349 33.79C48.7949 33.65 48.8589 33.516 48.9269 33.388L51.4889 28.582C51.5209 28.522 51.5549 28.474 51.5909 28.438C51.6269 28.402 51.6649 28.376 51.7049 28.36C51.7489 28.344 51.7969 28.334 51.8489 28.33C51.9009 28.326 51.9629 28.324 52.0349 28.324H53.2529ZM56.8087 37H55.1887V28.324H56.8087V37ZM66.0652 28.324V37H65.2372C65.1092 37 65.0012 36.98 64.9132 36.94C64.8292 36.896 64.7472 36.824 64.6672 36.724L60.1372 30.94C60.1612 31.204 60.1732 31.448 60.1732 31.672V37H58.7512V28.324H59.5972C59.6652 28.324 59.7232 28.328 59.7712 28.336C59.8232 28.34 59.8672 28.352 59.9032 28.372C59.9432 28.388 59.9812 28.414 60.0172 28.45C60.0532 28.482 60.0932 28.526 60.1372 28.582L64.6852 34.39C64.6732 34.25 64.6632 34.112 64.6552 33.976C64.6472 33.84 64.6432 33.714 64.6432 33.598V28.324H66.0652Z"
          fill="#FFC107"/>
    <defs>
        <filter id="filter0_f" x="0" y="0" width="85" height="66" filterUnits="userSpaceOnUse"
                color-interpolation-filters="sRGB">
            <feFlood flood-opacity="0" result="BackgroundImageFix"/>
            <feBlend mode="normal" in="SourceGraphic" in2="BackgroundImageFix" result="shape"/>
            <feGaussianBlur stdDeviation="10" result="effect1_foregroundBlur"/>
        </filter>
    </defs>
</svg>
