<svg width="54" height="66" viewBox="0 0 54 66" fill="none" xmlns="http://www.w3.org/2000/svg">
    <g filter="url(#filter0_f)">
        <rect x="20" y="20" width="14" height="26" rx="5" fill="#E6E3E3"/>
    </g>
    <rect x="13" y="20" width="30" height="24" rx="5" fill="white"/>
    <path d="M28 38C29.5913 38 31.1174 37.3679 32.2426 36.2426C33.3679 35.1174 34 33.5913 34 32C34 30.4087 33.3679 28.8826 32.2426 27.7574C31.1174 26.6321 29.5913 26 28 26C26.4087 26 24.8826 26.6321 23.7574 27.7574C22.6321 28.8826 22 30.4087 22 32C22 33.5913 22.6321 35.1174 23.7574 36.2426C24.8826 37.3679 26.4087 38 28 38ZM30.7802 31.0302L27.778 34.0302C27.7083 34.1 27.6256 34.1553 27.5346 34.193C27.4435 34.2308 27.3459 34.2502 27.2474 34.2502C27.1488 34.2502 27.0512 34.2308 26.9602 34.193C26.8691 34.1553 26.7864 34.1 26.7168 34.0302L25.219 32.5302C25.0784 32.3894 24.9994 32.1985 24.9996 31.9995C24.9997 31.8004 25.0789 31.6096 25.2198 31.469C25.3606 31.3284 25.5515 31.2494 25.7505 31.2496C25.9496 31.2497 26.1404 31.3289 26.281 31.4698L27.2485 32.4395L29.7198 29.9698C29.8612 29.8331 30.0507 29.7575 30.2473 29.7592C30.4439 29.761 30.6321 29.8398 30.7711 29.9789C30.9102 30.1179 30.989 30.3061 30.9908 30.5027C30.9925 30.6993 30.9169 30.8888 30.7802 31.0302Z"
          fill="#1DAF4F"/>
    <defs>
        <filter id="filter0_f" x="0" y="0" width="54" height="66" filterUnits="userSpaceOnUse"
                color-interpolation-filters="sRGB">
            <feFlood flood-opacity="0" result="BackgroundImageFix"/>
            <feBlend mode="normal" in="SourceGraphic" in2="BackgroundImageFix" result="shape"/>
            <feGaussianBlur stdDeviation="10" result="effect1_foregroundBlur"/>
        </filter>
    </defs>
</svg>
